<?xml version="1.0" encoding="UTF-8"?>
<svg version="1.1" xmlns="http://www.w3.org/2000/svg" width="1920" height="819">
<path d="M0 0 C633.6 0 1267.2 0 1920 0 C1920 270.27 1920 540.54 1920 819 C1286.4 819 652.8 819 0 819 C0 548.73 0 278.46 0 0 Z " fill="#FDFDFD" transform="translate(0,0)"/>
<path d="M0 0 C1.0251157 -0.00199105 2.0502314 -0.0039821 3.10641122 -0.00603348 C4.23091676 -0.00312064 5.35542229 -0.0002078 6.51400375 0.00279331 C7.70981874 0.00193889 8.90563373 0.00108446 10.13768554 0.00020415 C13.45792963 -0.00115958 16.77811496 0.00197106 20.09835196 0.00698221 C23.67841052 0.01129639 27.25846724 0.00983959 30.83852768 0.00907993 C37.04157823 0.00855531 43.24461826 0.01169566 49.44766617 0.01731777 C58.41625702 0.02544114 67.38484278 0.02804885 76.35343692 0.02930576 C90.90401205 0.03149496 105.45458157 0.03815148 120.00515366 0.04760838 C134.14057004 0.0567859 148.2759849 0.06386507 162.41140366 0.06811619 C163.28255547 0.06837891 164.15370729 0.06864164 165.05125764 0.06891232 C169.4215239 0.07021735 173.79179017 0.07148106 178.16205645 0.07272422 C214.42388708 0.08309273 250.68571134 0.10070747 286.94753647 0.12304783 C288.07839584 4.81836033 288.07839584 4.81836033 286.90066147 7.56054783 C282.55153111 14.10419351 277.77894394 20.08106109 272.63503647 26.00195408 C270.33972435 28.64525994 268.15999795 31.35945151 266.01003647 34.12304783 C261.8684058 39.35547835 257.34114668 44.1933138 252.78347397 49.06054783 C250.44793609 51.56125593 248.21412264 54.13009395 246.01003647 56.74804783 C240.80342884 62.67710341 235.598878 64.08504688 227.94753647 65.12304783 C223.27250835 65.37327769 218.60499525 65.42199291 213.92471695 65.42800808 C211.60336095 65.43171716 209.28241514 65.44856095 206.96114731 65.46876621 C200.36928556 65.52377764 193.77736838 65.55492515 187.18532944 65.57934666 C183.13417948 65.59524951 179.08333075 65.62548017 175.03233719 65.66411114 C173.49664893 65.67571927 171.96090684 65.68169112 170.42517471 65.68179226 C168.27898838 65.68198507 166.13363232 65.70030012 163.98757553 65.72241306 C162.16084305 65.73001904 162.16084305 65.73001904 160.29720688 65.73777866 C154.84955752 66.36435115 151.00616941 68.48104592 147.61550522 72.74804783 C147.04944565 73.44881443 146.48338608 74.14958103 145.90017319 74.87158298 C145.02643051 75.98605808 145.02643051 75.98605808 144.13503647 77.12304783 C143.51902573 77.89052341 142.90301498 78.657999 142.26833725 79.44873142 C141.0408895 80.97845869 139.81747006 82.51142837 138.59841537 84.04785252 C136.53653291 86.63968939 134.43211749 89.19495343 132.32253647 91.74804783 C130.8637036 93.53930778 129.40541965 95.33101485 127.94753647 97.12304783 C127.19996078 98.03280369 127.19996078 98.03280369 126.43728256 98.96093845 C124.78882111 100.96844633 123.14892325 102.98271934 121.51003647 104.99804783 C120.98909409 105.62920506 120.4681517 106.26036228 119.93142319 106.91064548 C119.44302963 107.51441013 118.95463608 108.11817478 118.45144272 108.74023533 C118.01646469 109.27245701 117.58148666 109.80467869 117.13332748 110.3530283 C114.03256221 114.9815126 113.66017882 119.34030823 113.69598007 124.78318882 C113.69300993 125.54685184 113.69003979 126.31051486 113.68697965 127.09731919 C113.67935085 129.65211466 113.68582903 132.20667947 113.69216537 134.76147556 C113.68941498 136.59482065 113.68573478 138.42816455 113.68119431 140.26150608 C113.67308537 144.20766847 113.67091307 148.15377421 113.67314148 152.09994411 C113.67597437 158.33995666 113.66162381 164.57985597 113.64416122 170.81984043 C113.5971309 188.56322629 113.57319004 206.30660436 113.56667709 224.05004978 C113.56292768 233.85099621 113.54490876 243.65181444 113.51158273 253.45270592 C113.49135485 259.65557157 113.48900516 265.8581069 113.49986291 272.06099212 C113.50246895 275.92034181 113.48847139 279.77949892 113.46978188 283.63879871 C113.46445696 285.42782674 113.4659618 287.21689017 113.47481728 289.0059042 C113.48593787 291.44970472 113.4725088 293.89220219 113.45306015 296.33592319 C113.46218481 297.04264288 113.47130946 297.74936256 113.48071063 298.47749799 C113.36115658 306.2056171 108.71374321 310.65971164 103.4922142 315.80542088 C102.96000259 316.33792454 102.42779099 316.8704282 101.87945175 317.41906834 C100.13471409 319.16242282 98.38301803 320.89859996 96.63113022 322.63476658 C95.41048265 323.85167886 94.1902797 325.06903728 92.97050095 326.28682041 C89.76868733 329.48102523 86.56091579 332.66918021 83.35183334 335.85608006 C80.08649844 339.10094582 76.82682084 342.3514836 73.56667709 345.60156345 C68.30381 350.84687203 63.03745762 356.08865079 57.76673508 361.32606602 C54.96750498 364.1051741 54.96750498 364.1051741 52.23966599 366.95393467 C50.94753647 368.12304783 50.94753647 368.12304783 48.94753647 368.12304783 C48.85628602 338.92457116 48.78549776 309.7261084 48.74327515 280.52751764 C48.73827232 277.08035689 48.73309504 273.63319643 48.72780991 270.18603611 C48.72676066 269.49976857 48.72571142 268.81350104 48.72463039 268.10643752 C48.70722516 256.99448797 48.67568685 245.8826212 48.63892528 234.77072076 C48.60151906 223.36886531 48.57960072 211.96707705 48.57118249 200.56515849 C48.56596275 194.16085318 48.55367445 187.75673562 48.52461624 181.35249043 C48.49749441 175.32626555 48.48908506 169.30030603 48.49510574 163.27402592 C48.49400407 161.06087776 48.48603119 158.84772086 48.47071457 156.63462543 C48.45083771 153.61484463 48.45558935 150.59606802 48.4665184 147.57626438 C48.45486704 146.69882332 48.44321567 145.82138226 48.43121123 144.91735208 C48.48444114 139.48269214 49.39541841 136.47407397 52.94753647 132.12304783 C53.41377426 131.53177097 53.88001205 130.94049412 54.36037827 130.33129978 C54.78488266 129.84620945 55.20938705 129.36111912 55.64675522 128.86132908 C56.12870346 128.30598484 56.6106517 127.7506406 57.10720444 127.17846775 C57.86348129 126.31572239 57.86348129 126.31572239 58.63503647 125.43554783 C59.7153995 124.18896253 60.79481939 122.94155925 61.87331772 121.69336033 C62.40006088 121.08395603 62.92680405 120.47455173 63.46950912 119.84668064 C66.19857011 116.66412852 68.83671204 113.4090272 71.47878647 110.15429783 C73.38595422 107.81258553 75.30278445 105.48045095 77.22878647 103.15429783 C83.34855468 95.75992845 89.41965323 88.34063606 95.29958725 80.75341892 C97.66523953 77.71007315 100.10330713 74.78563006 102.69753647 71.93554783 C103.44003647 71.00742283 104.18253647 70.07929783 104.94753647 69.12304783 C104.61753647 68.13304783 104.28753647 67.14304783 103.94753647 66.12304783 C102.7506764 66.11669992 102.7506764 66.11669992 101.52963734 66.11022377 C82.14334978 66.00706238 62.75709986 65.89844672 43.37087727 65.78370857 C33.9959712 65.72835529 24.62106133 65.6748699 15.24612045 65.62573338 C7.07796735 65.58291725 -1.09015749 65.53664587 -9.25826699 65.48616928 C-13.58595749 65.45954754 -17.91364231 65.43469404 -22.24136543 65.41397381 C-26.30998829 65.39443961 -30.37855724 65.3703057 -34.44713211 65.34255695 C-35.94476789 65.33316941 -37.44241551 65.3255003 -38.9400692 65.31962872 C-40.97600618 65.31139646 -43.0119132 65.29653084 -45.0478096 65.28126621 C-46.18991111 65.27481366 -47.33201262 65.26836111 -48.50872326 65.26171303 C-51.05246353 65.12304783 -51.05246353 65.12304783 -52.05246353 64.12304783 C-53.32335267 49.63491167 -47.72356214 34.69669009 -38.91574478 23.37695408 C-36.7147717 20.85332525 -34.43397744 18.47625852 -32.05246353 16.12304783 C-31.36539322 15.41406345 -30.67832291 14.70507908 -29.97043228 13.97461033 C-22.07814251 6.33124249 -11.18810192 -0.00479764 0 0 Z " fill="#020A17" transform="translate(188.05246353149414,212.87695217132568)"/>
<path d="M0 0 C0.78460602 -0.00832352 1.56921204 -0.01664703 2.37759399 -0.02522278 C4.95913733 -0.04922261 7.5404274 -0.05808321 10.12207031 -0.06469727 C11.92799959 -0.07367227 13.73392813 -0.08279427 15.53985596 -0.09205627 C19.3224874 -0.10852238 23.1050306 -0.11624186 26.88769531 -0.11914062 C31.71393482 -0.12451732 36.53933455 -0.16217793 41.36533737 -0.20788479 C45.09563152 -0.23775886 48.82572612 -0.24486645 52.55612946 -0.24586678 C54.33419891 -0.25004972 56.11227003 -0.26240593 57.89022064 -0.28338432 C68.97281259 -0.40372824 77.62983442 -0.14528921 86.42285156 7.43920898 C86.9475 8.09663086 87.47214844 8.75405273 88.01269531 9.43139648 C88.56054688 10.09397461 89.10839844 10.75655273 89.67285156 11.43920898 C92.27786755 15.24715285 92.0923419 18.73850603 92.12719727 23.22119141 C92.13376846 23.92078979 92.14033966 24.62038818 92.14710999 25.34118652 C92.16681823 27.65641391 92.17850182 29.97157641 92.18847656 32.28686523 C92.19255209 33.07950586 92.19662762 33.87214649 92.20082664 34.68880653 C92.22167977 38.88661055 92.2359831 43.08438197 92.24536133 47.28222656 C92.25640662 51.60529356 92.29078651 55.92784312 92.33053303 60.25072765 C92.35675897 63.58546362 92.36505858 66.9200776 92.36864281 70.25490761 C92.37349565 71.84762365 92.38507236 73.44033472 92.4036808 75.03294945 C92.58880254 91.93100824 92.58880254 91.93100824 86.20410156 99.32983398 C85.6459375 99.77584961 85.08777344 100.22186523 84.51269531 100.68139648 C83.67931641 101.37362305 83.67931641 101.37362305 82.82910156 102.07983398 C77.8778037 105.31207417 73.23437531 105.61229998 67.44726562 105.62866211 C66.60267792 105.63859192 65.75809021 105.64852173 64.88790894 105.65875244 C62.10134588 105.68789603 59.31501057 105.70158316 56.52832031 105.71264648 C54.58404539 105.72415838 52.63977049 105.73567373 50.69549561 105.74719238 C46.62022854 105.76818452 42.54504006 105.77988775 38.46972656 105.78686523 C33.26323945 105.79782412 28.05780123 105.84586531 22.85164261 105.90280914 C18.83486965 105.94017225 14.8183465 105.95047889 10.80141449 105.95353699 C8.88294496 105.95956726 6.96447863 105.97554741 5.04618073 106.00190735 C-13.55125533 106.23920252 -13.55125533 106.23920252 -19.41766357 101.15107727 C-19.95627014 100.54233261 -20.49487671 99.93358795 -21.04980469 99.30639648 C-21.58180481 98.71001877 -22.11380493 98.11364105 -22.66192627 97.49919128 C-27.6216877 90.43005863 -26.7356015 81.69757363 -26.64355469 73.45092773 C-26.6418408 71.81906727 -26.64191209 70.18720404 -26.64367676 68.55534363 C-26.64203051 65.15023135 -26.62345658 61.74578301 -26.59179688 58.34082031 C-26.55202616 53.98633503 -26.54776693 49.63271352 -26.5552597 45.27808094 C-26.55833452 41.91420135 -26.5461923 38.55051435 -26.52912903 35.18668175 C-26.52212318 33.58119604 -26.51897155 31.97568853 -26.51982117 30.37018776 C-26.51801501 28.12562465 -26.49656836 25.88208107 -26.46972656 23.63769531 C-26.46130737 22.36356277 -26.45288818 21.08943024 -26.44421387 19.77668762 C-25.60238067 12.36964329 -21.52274566 8.33121604 -16.11230469 3.61889648 C-11.04037214 0.39130305 -5.86680508 0.00534561 0 0 Z " fill="#050D18" transform="translate(1684.0498046875,308.693603515625)"/>
<path d="M0 0 C3.06805188 1.53716301 5.44487344 3.72975033 8 6 C9.5099335 7.26665526 11.01998623 8.53317095 12.53198242 9.79736328 C14.79912691 11.7010826 17.04842035 13.62538085 19.29882812 15.54882812 C21.47110158 17.40186966 23.65277338 19.24361537 25.83496094 21.08496094 C30.88674985 25.34865847 35.91917174 29.63448067 40.9375 33.9375 C41.51878662 34.43556152 42.10007324 34.93362305 42.69897461 35.44677734 C45.641032 37.96947055 48.57712789 40.49865483 51.50390625 43.0390625 C58.34520048 48.96372833 65.29921748 54.69075259 72.453125 60.234375 C77.00169881 63.78106031 81.4960383 67.39683064 86 71 C86 47.57 86 24.14 86 0 C92.93 0 99.86 0 107 0 C107.06767247 13.39498453 107.12275633 26.78985625 107.15543652 40.18497276 C107.17111827 46.40430406 107.19240234 52.62351273 107.22631836 58.84277344 C107.25882226 64.84036089 107.27683408 70.83783011 107.28463173 76.83549881 C107.29019139 79.1281381 107.30104743 81.42077064 107.31719017 83.71335983 C107.33884508 86.91500785 107.34197192 90.1161621 107.34057617 93.31787109 C107.351362 94.27380661 107.36214783 95.22974213 107.3732605 96.21464539 C107.36913651 97.08405258 107.36501251 97.95345978 107.36076355 98.84921265 C107.36352893 99.60692648 107.36629431 100.36464031 107.36914349 101.14531517 C107.24732614 101.75736116 107.12550879 102.36940716 107 103 C103.01015807 105.65989462 100.18464157 105.83952422 95.44140625 105.75390625 C89.03852524 104.35123198 84.548389 99.87102314 79.78662109 95.59960938 C78.03411178 94.03054118 76.25363612 92.50263264 74.45703125 90.984375 C72.10794357 88.99638513 69.77069195 86.99614535 67.4453125 84.98046875 C59.33618644 77.95423841 51.11478665 71.06960991 42.79296875 64.296875 C39.77227105 61.81272081 36.78991751 59.28561302 33.8125 56.75 C27.98783135 51.79173747 22.06646362 46.95821698 16.11645508 42.15136719 C15.46443115 41.62446289 14.81240723 41.09755859 14.140625 40.5546875 C13.55829102 40.08530762 12.97595703 39.61592773 12.37597656 39.13232422 C11 38 11 38 10 37 C9.67 59.44 9.34 81.88 9 105 C2.07 105 -4.86 105 -12 105 C-12.06767247 91.60501547 -12.12275633 78.21014375 -12.15543652 64.81502724 C-12.17111827 58.59569594 -12.19240234 52.37648727 -12.22631836 46.15722656 C-12.25882226 40.15963911 -12.27683408 34.16216989 -12.28463173 28.16450119 C-12.29019139 25.8718619 -12.30104743 23.57922936 -12.31719017 21.28664017 C-12.33884508 18.08499215 -12.34197192 14.8838379 -12.34057617 11.68212891 C-12.351362 10.72619339 -12.36214783 9.77025787 -12.3732605 8.78535461 C-12.36913651 7.91594742 -12.36501251 7.04654022 -12.36076355 6.15078735 C-12.36352893 5.39307352 -12.36629431 4.63535969 -12.36914349 3.85468483 C-12.24732614 3.24263884 -12.12550879 2.63059284 -12 2 C-7.92227039 -0.7184864 -4.78806329 -0.85697685 0 0 Z " fill="#050C18" transform="translate(1313,309)"/>
<path d="M0 0 C0.16356476 24.50425613 0.28698243 49.00843037 0.3626852 73.51312256 C0.3987706 84.89125829 0.44796284 96.26905472 0.52807617 107.64697266 C0.5978746 117.56467193 0.64301432 127.48212545 0.65861946 137.40006351 C0.6677407 142.65106186 0.68915709 147.90135723 0.7401104 153.15213013 C0.78770323 158.0967699 0.80226488 163.04041866 0.79175377 167.98526573 C0.79367602 169.79769976 0.80755409 171.61016769 0.83443832 173.42240334 C1.05160164 188.81926894 1.05160164 188.81926894 -3.34284973 193.94186401 C-4.52688127 195.00171556 -5.74526901 196.02487636 -7 197 C-8.11045739 198.05489613 -9.21459494 199.11653158 -10.30908203 200.18798828 C-11.49815636 201.27613812 -12.68953369 202.361775 -13.8828125 203.4453125 C-21.09222062 210.10288272 -28.06683763 216.97977409 -34.9921875 223.9296875 C-35.51456245 224.45359322 -36.03693741 224.97749893 -36.57514191 225.51728058 C-40.3453361 229.29963581 -44.11063375 233.08684584 -47.875 236.875 C-51.69030601 240.71402089 -55.50734148 244.55129343 -59.32852554 248.38446426 C-60.8429029 249.90529934 -62.3542365 251.4291145 -63.865448 252.95309448 C-64.77464996 253.86559967 -65.68385193 254.77810486 -66.62060547 255.71826172 C-67.42061981 256.52351288 -68.22063416 257.32876404 -69.04489136 258.15841675 C-72.07889045 261.01624357 -73.84254237 261.1243966 -77.9100647 261.12025452 C-78.94775497 261.12162918 -79.98544525 261.12300385 -81.05458069 261.12442017 C-82.19753098 261.12082489 -83.34048126 261.11722961 -84.51806641 261.11352539 C-86.31803825 261.11374443 -86.31803825 261.11374443 -88.15437317 261.1139679 C-91.44962861 261.11338957 -94.74482182 261.10836565 -98.04006624 261.10139394 C-101.48206176 261.09515327 -104.92405805 261.09455604 -108.36605835 261.09336853 C-114.88607935 261.09025732 -121.40608364 261.08204676 -127.92609727 261.07201904 C-135.34800738 261.06085138 -142.76991827 261.05534581 -150.19183469 261.05032361 C-165.46123282 261.03986398 -180.73061425 261.0222686 -196 261 C-196 259 -196 259 -194.64015198 257.30460262 C-188.92153013 251.79853401 -184.68268286 250.99158818 -176.90234375 251.11352539 C-175.81852921 251.10274963 -174.73471466 251.09197388 -173.61805725 251.08087158 C-170.05716954 251.05359493 -166.49839265 251.07531494 -162.9375 251.09765625 C-160.46027313 251.08826843 -157.98305616 251.07580896 -155.50585938 251.06040955 C-149.00211392 251.02820393 -142.49907411 251.03761945 -135.99530029 251.05578613 C-129.3522371 251.06694941 -122.70942352 251.03863542 -116.06640625 251.01367188 C-103.0441587 250.97053994 -90.0222741 250.97004804 -77 251 C-76.99635437 250.25941849 -76.99270874 249.51883698 -76.98895264 248.7558136 C-76.95104199 241.76695972 -76.89415441 234.77848837 -76.81609726 227.78997517 C-76.77663469 224.19728618 -76.74444066 220.60484182 -76.72900391 217.01196289 C-76.7138286 213.54275334 -76.67936945 210.07421637 -76.63169098 206.60530663 C-76.60969433 204.64178569 -76.60752701 202.678075 -76.60565186 200.71443176 C-76.58593323 199.5135643 -76.5662146 198.31269684 -76.54589844 197.07543945 C-76.53257477 195.49325371 -76.53257477 195.49325371 -76.51898193 193.87910461 C-75.87262081 190.29335108 -74.49608742 188.60580174 -72 186 C-69.29710692 184.64855346 -67.19930194 184.88024835 -64.17333984 184.88647461 C-62.95222504 184.88655014 -61.73111023 184.88662567 -60.47299194 184.88670349 C-59.13564005 184.89181048 -57.79828857 184.89702648 -56.4609375 184.90234375 C-55.09616141 184.9042086 -53.73138466 184.90563219 -52.36660767 184.90663147 C-48.77284907 184.91045137 -45.17913083 184.92027717 -41.58538818 184.93133545 C-37.91891018 184.94156089 -34.25242565 184.94613152 -30.5859375 184.95117188 C-23.39060659 184.9618999 -16.19530895 184.97897001 -9 185 C-9.00645255 184.09516373 -9.0129051 183.19032745 -9.01955318 182.2580719 C-9.17420331 160.23239117 -9.2900089 138.20680413 -9.3626852 116.18069458 C-9.398766 105.52895601 -9.44794924 94.87758004 -9.52807617 84.22607422 C-9.59788894 74.94122734 -9.64301767 65.65664308 -9.65861946 56.37154102 C-9.66773834 51.45586952 -9.68913908 46.54094929 -9.7401104 41.6255188 C-9.78772626 36.99603919 -9.80226046 32.36761818 -9.79175377 27.73791695 C-9.79367502 26.04158329 -9.80753983 24.34521319 -9.83443832 22.64909172 C-10.05153875 8.24973407 -10.05153875 8.24973407 -5.57533264 2.92773438 C-2.49006529 0 -2.49006529 0 0 0 Z " fill="#7A50FA" transform="translate(465,327)"/>
<path d="M0 0 C0.64604187 -0.00861557 1.29208374 -0.01723114 1.95770264 -0.02610779 C4.08752827 -0.0487603 6.21603718 -0.04203109 8.34594727 -0.03295898 C9.8304127 -0.03819534 11.3148748 -0.04447186 12.79933167 -0.05174255 C15.90886096 -0.0621456 19.01793261 -0.05758775 22.12744141 -0.04296875 C26.10692953 -0.02578862 30.08497273 -0.04926478 34.06429958 -0.08445835 C37.12963885 -0.10645047 40.19463339 -0.10498656 43.26002693 -0.09669304 C44.72681322 -0.09587433 46.19362502 -0.10272246 47.66033745 -0.11746407 C49.71455742 -0.13494438 51.76619506 -0.1203453 53.8203125 -0.09765625 C55.57093239 -0.09621361 55.57093239 -0.09621361 57.35691833 -0.09474182 C61.48483393 0.73693407 62.96037119 2.20059181 65.47485352 5.53344727 C66.09631348 8.23377991 66.09631348 8.23377991 66.09008789 11.17822266 C66.10404602 12.84003319 66.10404602 12.84003319 66.11828613 14.53541565 C66.10189087 15.72199265 66.08549561 16.90856964 66.06860352 18.13110352 C66.0686438 19.3575206 66.06868408 20.58393768 66.06872559 21.84751892 C66.06336921 24.43729789 66.04578183 27.02707637 66.0168457 29.61669922 C65.97497015 33.58489526 65.97577946 37.55139554 65.98266602 41.51977539 C65.97217443 44.03606325 65.95923651 46.55234235 65.94360352 49.06860352 C65.94330139 50.85150536 65.94330139 50.85150536 65.94299316 52.67042542 C65.9270813 53.77514694 65.91116943 54.87986847 65.89477539 56.01806641 C65.8863562 56.98893692 65.87793701 57.95980743 65.8692627 58.96009827 C65.38943414 62.09077166 64.84894806 63.41890692 62.47485352 65.53344727 C59.47680664 66.03465271 59.47680664 66.03465271 55.75610352 66.03515625 C55.07773438 66.04055923 54.39936523 66.04596222 53.70043945 66.05152893 C51.45813358 66.06403614 49.21710682 66.04751391 46.97485352 66.02954102 C45.41691012 66.02969596 43.85896634 66.03118417 42.30102539 66.03395081 C39.0358781 66.03533568 35.7711696 66.0227626 32.50610352 66 C28.31931431 65.97161464 24.1332543 65.97435128 19.94641113 65.98709011 C16.72934737 65.99404283 13.51245237 65.98626276 10.29541016 65.97383308 C8.75163419 65.96931459 7.20784012 65.96898527 5.6640625 65.97289848 C3.50686466 65.97580684 1.35067411 65.95932369 -0.80639648 65.9375 C-2.03422852 65.93209702 -3.26206055 65.92669403 -4.52709961 65.92112732 C-7.52514648 65.53344727 -7.52514648 65.53344727 -9.41981506 64.35827637 C-10.96429761 61.80843778 -10.91331087 59.90701157 -10.92919922 56.93212891 C-10.94188339 55.78406265 -10.95456757 54.6359964 -10.96763611 53.45314026 C-10.96470047 52.21249313 -10.96176483 50.97184601 -10.95874023 49.69360352 C-10.96398209 48.41996445 -10.96922394 47.14632538 -10.97462463 45.83409119 C-10.98105438 43.13794158 -10.98113078 40.44263634 -10.97119141 37.74658203 C-10.95970581 34.29510832 -10.97990347 30.84465833 -11.00910854 27.39331913 C-11.03189015 24.09757533 -11.02500312 20.80190763 -11.02124023 17.50610352 C-11.03247421 16.26748062 -11.04370819 15.02885773 -11.05528259 13.75270081 C-11.04121117 12.02587318 -11.04121117 12.02587318 -11.02685547 10.26416016 C-11.0266893 9.25172745 -11.02652313 8.23929474 -11.02635193 7.19618225 C-9.83589983 0.87171292 -5.83235387 0.03099784 0 0 Z " fill="#FAFAFB" transform="translate(1689.525146484375,328.466552734375)"/>
<path d="M0 0 C0.81984375 -0.02578125 1.6396875 -0.0515625 2.484375 -0.078125 C6.9364181 0.4500835 10.63387312 1.4405431 13.65820312 4.82666016 C15.0860876 6.89623635 16.36404168 9.01209762 17.625 11.1875 C18.12483398 12.01306396 18.62466797 12.83862793 19.13964844 13.68920898 C20.25109539 15.52859668 21.35417667 17.37305735 22.45019531 19.22167969 C24.70168327 23.00999448 26.994393 26.77250727 29.28746033 30.53575134 C31.45893529 34.10045461 33.62497187 37.66836373 35.78587341 41.23948669 C40.26293438 48.63766781 44.77663829 56.01268506 49.3125 63.375 C49.95743408 64.42252441 50.60236816 65.47004883 51.2668457 66.54931641 C54.38163357 71.60546265 57.50164326 76.6583141 60.63032532 81.70587158 C62.12453664 84.11743272 63.61646355 86.53040275 65.10812378 88.94354248 C66.1655842 90.65209046 67.22643375 92.35853935 68.28735352 94.06494141 C69.24146118 95.60867432 69.24146118 95.60867432 70.21484375 97.18359375 C70.7780835 98.09165771 71.34132324 98.99972168 71.92163086 99.93530273 C73.25 102.25 73.25 102.25 74.25 105.25 C53.55963905 108.37035606 53.55963905 108.37035606 47.16210938 103.73828125 C43.36655515 99.22683958 41.1456078 93.78678809 38.76855469 88.43798828 C36.23959497 83.12879921 33.09153661 78.20133436 29.98251343 73.21917725 C28.14033701 70.25563411 26.33600081 67.26922744 24.52734375 64.28515625 C23.80860181 63.10292348 23.08969004 61.92079393 22.37060547 60.73876953 C20.30830433 57.34693405 18.24970985 53.95285669 16.19140625 50.55859375 C14.94014737 48.49736961 13.68884743 46.43617039 12.4375 44.375 C11.86918457 43.4368042 11.30086914 42.4986084 10.71533203 41.53198242 C8.49840532 37.88383688 6.28490927 34.25858215 3.86328125 30.7421875 C2.25 28.25 2.25 28.25 2.25 26.25 C-0.0338845 28.37814627 -1.63251143 30.49151907 -3.2109375 33.1796875 C-3.6754834 33.96384033 -4.1400293 34.74799316 -4.61865234 35.5559082 C-5.11574707 36.4037085 -5.6128418 37.25150879 -6.125 38.125 C-7.20704702 39.94998203 -8.29042278 41.77417677 -9.375 43.59765625 C-9.93316406 44.53625488 -10.49132812 45.47485352 -11.06640625 46.44189453 C-13.70596797 50.84448138 -16.41283444 55.20438766 -19.125 59.5625 C-23.20354034 66.11885991 -27.2472646 72.69390835 -31.23632812 79.30517578 C-32.44317286 81.29259737 -33.66175732 83.27294257 -34.89257812 85.24560547 C-38.56229289 91.13064566 -38.56229289 91.13064566 -41.56640625 97.3671875 C-43.33502567 101.1349231 -44.2348036 102.97798282 -47.75 105.25 C-55.66871843 106.63440145 -63.78891609 105.9802029 -71.75 105.25 C-70.57628576 102.15414982 -69.32966595 99.36610804 -67.52734375 96.58984375 C-67.07979736 95.8927832 -66.63225098 95.19572266 -66.17114258 94.47753906 C-65.68154053 93.72182617 -65.19193848 92.96611328 -64.6875 92.1875 C-59.36103594 83.86225575 -54.18288589 75.4528251 -49.0625 67 C-48.71540985 66.42756561 -48.3683197 65.85513123 -48.01071167 65.26535034 C-45.58481483 61.2636352 -43.16585876 57.25777813 -40.75 53.25 C-40.3930304 52.65834045 -40.03606079 52.06668091 -39.66827393 51.45709229 C-35.36317712 44.31816389 -31.09963694 37.15696145 -26.890625 29.9609375 C-25.67025141 27.8807327 -24.44927768 25.8008816 -23.22802734 23.72119141 C-22.39970268 22.30727579 -21.57391091 20.89187367 -20.75048828 19.47509766 C-19.53344237 17.38280838 -18.30672867 15.29645558 -17.078125 13.2109375 C-16.71656311 12.58383881 -16.35500122 11.95674011 -15.98248291 11.31063843 C-11.87935046 4.39112058 -8.25822438 0.15387996 0 0 Z " fill="#050D19" transform="translate(815.75,308.75)"/>
<path d="M0 0 C31.02 0 62.04 0 94 0 C94 6.27 94 12.54 94 19 C69.91 19 45.82 19 21 19 C21 26.26 21 33.52 21 41 C51.03 41 81.06 41 112 41 C112 47.6 112 54.2 112 61 C75.04 61 38.08 61 0 61 C0 40.87 0 20.74 0 0 Z " fill="#050C17" transform="translate(1120,353)"/>
<path d="M0 0 C38.61 0 77.22 0 117 0 C117 6.93 117 13.86 117 21 C101.16 21 85.32 21 69 21 C69 49.05 69 77.1 69 106 C62.07 106 55.14 106 48 106 C48 77.62 48 49.24 48 20 C32.16 20 16.32 20 0 20 C0 13.4 0 6.8 0 0 Z " fill="#0A111E" transform="translate(1483,309)"/>
<path d="M0 0 C7.26 0 14.52 0 22 0 C22 28.05 22 56.1 22 85 C50.71 85 79.42 85 109 85 C109 91.93 109 98.86 109 106 C73.03 106 37.06 106 0 106 C0 71.02 0 36.04 0 0 Z " fill="#0C131E" transform="translate(947,309)"/>
<path d="M0 0 C38.61 0 77.22 0 117 0 C117 6.6 117 13.2 117 20 C101.16 20 85.32 20 69 20 C69 48.05 69 76.1 69 105 C62.4 105 55.8 105 49 105 C49 76.95 49 48.9 49 20 C32.83 20 16.66 20 0 20 C0 13.4 0 6.8 0 0 Z " fill="#050C18" transform="translate(593,309)"/>
<path d="M0 0 C36.96 0 73.92 0 112 0 C112 6.6 112 13.2 112 20 C75.04 20 38.08 20 0 20 C0 13.4 0 6.8 0 0 Z " fill="#070E19" transform="translate(1120,309)"/>
<path d="M0 0 C5.97692935 2.72711605 9.54677327 6.45324028 11.9921875 12.625 C13.49764744 20.69973967 13.24694921 27.23589974 8.6796875 34.3125 C4.78132164 38.53868298 1.43764536 41.06996602 -4.4296875 41.5859375 C-16.49234129 41.9224493 -16.49234129 41.9224493 -20.9921875 37.9453125 C-25.73007671 32.12049577 -27.74405585 25.50595796 -27.66796875 18.08203125 C-26.91146806 12.05552576 -24.06493267 7.01456846 -19.7578125 2.8125 C-13.39066818 -1.10574266 -7.36507487 -2.18224441 0 0 Z " fill="#8849FA" transform="translate(1078.3203125,488.6875)"/>
<path d="M0 0 C4.49430678 4.1646086 7.7508565 7.78564037 8.23828125 14.07421875 C8.50974895 27.29040958 8.50974895 27.29040958 4 33 C-0.8367113 38.02613864 -4.94073176 39.17345464 -11.8125 39.3125 C-17.40763418 39.26640209 -20.83709206 39.05335773 -25 35 C-30.98508088 28.34991014 -31.68938318 22.61504603 -31.44921875 13.9375 C-30.82571685 8.47237031 -29.02912518 5.61001996 -25 2 C-24.13375 1.195625 -23.2675 0.39125 -22.375 -0.4375 C-15.76841301 -4.78393881 -6.64947544 -4.02677397 0 0 Z " fill="#8C50F9" transform="translate(1447,491)"/>
<path d="M0 0 C4.56679129 2.44961985 7.60134108 5.70268215 9.9375 10.375 C10.4447965 15.93031248 10.70010422 20.79330236 8.25 25.875 C3.3603466 31.16111179 -0.69577987 33.93346293 -7.875 34.875 C-14.32603497 34.70427318 -18.35373181 30.1692066 -22.5625 25.75 C-24.8519727 20.59868642 -25.00692098 15.91075988 -24.0625 10.375 C-21.59351059 4.80625747 -17.55365194 1.35609476 -12 -1 C-7.45279214 -2.46684124 -4.26478089 -1.89722963 0 0 Z " fill="#070E1A" transform="translate(382.0625,323.625)"/>
<path d="M0 0 C3.691875 -0.061875 7.38375 -0.12375 11.1875 -0.1875 C12.3427417 -0.21481201 13.4979834 -0.24212402 14.68823242 -0.27026367 C15.60967041 -0.27775635 16.5311084 -0.28524902 17.48046875 -0.29296875 C18.41785889 -0.3086792 19.35524902 -0.32438965 20.32104492 -0.34057617 C24.51537364 0.1926498 27.14401993 1.9669206 29.8125 5.1875 C31.3609934 8.85498438 31.69945988 12.11495653 31 16 C28.98497111 19.75212276 27.54533858 21.63644095 24 24 C25.72052101 28.65208836 28.13317329 32.60484829 30.7578125 36.79296875 C32 39 32 39 32 41 C29.36 41 26.72 41 24 41 C23.29037109 39.39318359 23.29037109 39.39318359 22.56640625 37.75390625 C19.38495083 30.05464208 19.38495083 30.05464208 13.46484375 24.78125 C10.74196008 24.4583736 10.74196008 24.4583736 7 25 C7 30.28 7 35.56 7 41 C4.69 41 2.38 41 0 41 C0 27.47 0 13.94 0 0 Z " fill="#8F52FA" transform="translate(846,489)"/>
<path d="M0 0 C5.20304084 4.12924254 8.73360106 9.14860494 10.64453125 15.52734375 C11.0120621 19.57018309 10.95722972 23.48311014 10.64453125 27.52734375 C8.99878559 27.55422526 7.35291712 27.57368498 5.70703125 27.58984375 C4.33224609 27.60724609 4.33224609 27.60724609 2.9296875 27.625 C0.64453125 27.52734375 0.64453125 27.52734375 -0.35546875 26.52734375 C-0.48770394 24.96696854 -0.58615404 23.40367344 -0.66796875 21.83984375 C-1.27247255 15.51510998 -3.29487993 12.26739653 -8.16796875 8.15234375 C-14.0278432 5.1654531 -21.02072658 5.6271789 -27.35546875 6.52734375 C-31.6025358 8.29933673 -35.02261702 10.46470107 -37.546875 14.37109375 C-38.54573183 17.03471196 -38.77802245 19.44309551 -38.98046875 22.27734375 C-39.10421875 24.00984375 -39.22796875 25.74234375 -39.35546875 27.52734375 C-42.98546875 27.52734375 -46.61546875 27.52734375 -50.35546875 27.52734375 C-50.86837717 18.29499224 -49.27081787 11.30740824 -43.16796875 4.15234375 C-31.57727107 -7.87253316 -14.06300069 -8.79229065 0 0 Z " fill="#0E131E" transform="translate(394.35546875,373.47265625)"/>
<path d="M0 0 C2.31 0 4.62 0 7 0 C7 13.86 7 27.72 7 42 C0 42 0 42 -1.76928711 40.61401367 C-2.1844458 39.97181885 -2.59960449 39.32962402 -3.02734375 38.66796875 C-3.75147461 37.59192383 -3.75147461 37.59192383 -4.49023438 36.49414062 C-4.96783203 35.73294922 -5.44542969 34.97175781 -5.9375 34.1875 C-6.90367022 32.7218132 -7.8711428 31.25698417 -8.83984375 29.79296875 C-9.88269531 28.21128906 -10.92554688 26.62960937 -12 25 C-14.64 21.37 -17.28 17.74 -20 14 C-20.33 23.24 -20.66 32.48 -21 42 C-23.31 42 -25.62 42 -28 42 C-28 28.47 -28 14.94 -28 1 C-21 1 -21 1 -19.01538086 2.60131836 C-18.50370361 3.34003174 -17.99202637 4.07874512 -17.46484375 4.83984375 C-16.59182617 6.06477539 -16.59182617 6.06477539 -15.70117188 7.31445312 C-15.11916016 8.18005859 -14.53714844 9.04566406 -13.9375 9.9375 C-13.35162109 10.76830078 -12.76574219 11.59910156 -12.16210938 12.45507812 C-8.34187123 17.90347548 -4.69133566 23.46299651 -1 29 C-0.67 19.43 -0.34 9.86 0 0 Z " fill="#9057F9" transform="translate(1528,488)"/>
<path d="M0 0 C1.10031303 0.00303635 1.10031303 0.00303635 2.22285461 0.00613403 C2.99192642 0.00438171 3.76099823 0.00262939 4.55337524 0.00082397 C7.10793787 -0.00359483 9.66243185 -0.00065646 12.21699524 0.00271606 C13.98437005 0.00204303 15.75174477 0.00107302 17.51911926 -0.00018311 C21.22815327 -0.00166012 24.93716324 0.00049458 28.64619446 0.00515747 C33.41147017 0.01085476 38.17668956 0.00757577 42.9419632 0.00158501 C46.59295581 -0.00202052 50.24393497 -0.00088206 53.89492798 0.0017128 C55.65248623 0.00238209 57.41004569 0.00155357 59.16760254 -0.00076675 C61.61964678 -0.00329314 64.07159855 0.0005471 66.52363586 0.00613403 C67.25717789 0.0041098 67.99071991 0.00208557 68.74649048 0 C73.7589826 0.02126592 73.7589826 0.02126592 74.87324524 1.13552856 C75.06074524 4.07302856 75.06074524 4.07302856 74.87324524 7.13552856 C72.42799115 9.58078265 71.09753528 9.37752821 67.76010132 9.40658569 C66.69558998 9.400513 66.69558998 9.400513 65.60957336 9.39431763 C64.86146896 9.39782227 64.11336456 9.4013269 63.34259033 9.40493774 C60.86313165 9.41375946 58.38395696 9.40790445 55.90449524 9.40115356 C54.18578537 9.40250009 52.46707587 9.40444052 50.74836731 9.4069519 C47.14363484 9.40990376 43.53900138 9.40560357 39.9342804 9.39627075 C35.30695464 9.38487615 30.67986088 9.3914353 26.05254364 9.40341568 C22.50272362 9.41063264 18.95295886 9.40834712 15.40313721 9.4031601 C13.69664482 9.40182314 11.99014747 9.40347291 10.28366089 9.4081192 C7.90127719 9.41318178 5.51927249 9.40547823 3.13691711 9.39431763 C2.42724289 9.39836609 1.71756866 9.40241455 0.98638916 9.40658569 C-3.8982257 9.36405762 -3.8982257 9.36405762 -6.12675476 7.13552856 C-6.31425476 4.07302856 -6.31425476 4.07302856 -6.12675476 1.13552856 C-4.42112373 -0.57010247 -2.27513346 0.00965245 0 0 Z " fill="#020813" transform="translate(342.1267547607422,456.8644714355469)"/>
<path d="M0 0 C1.06451134 0.00607269 1.06451134 0.00607269 2.15052795 0.01226807 C2.89863235 0.00876343 3.64673676 0.00525879 4.41751099 0.00164795 C6.89696967 -0.00717377 9.37614436 -0.00131876 11.85560608 0.00543213 C13.57431595 0.0040856 15.29302545 0.00214518 17.01173401 -0.00036621 C20.61646648 -0.00331807 24.22109994 0.00098212 27.82582092 0.01031494 C32.45314668 0.02170954 37.08024044 0.01515039 41.70755768 0.00317001 C45.2573777 -0.00404694 48.80714245 -0.00176142 52.35696411 0.0034256 C54.06345649 0.00476255 55.76995385 0.00311278 57.47644043 -0.00153351 C59.85882413 -0.00659609 62.24082883 0.00110747 64.6231842 0.01226807 C65.33285843 0.0082196 66.04253265 0.00417114 66.77371216 0 C71.65832702 0.04252807 71.65832702 0.04252807 73.88685608 2.27105713 C74.13685608 4.77105713 74.13685608 4.77105713 73.88685608 7.27105713 C71.42590205 9.73201116 70.05746377 9.50958514 66.69914246 9.53100586 C65.97854645 9.52538635 65.25795044 9.51976685 64.51551819 9.51397705 C63.75605392 9.5158754 62.99658966 9.51777374 62.21411133 9.51972961 C59.69737001 9.52344209 57.18091561 9.51272749 54.66419983 9.50152588 C52.92067499 9.50033434 51.1771495 9.49988086 49.43362427 9.50013733 C45.77761321 9.4985717 42.12169996 9.49027536 38.4657135 9.47686768 C33.76884041 9.45986514 29.07207478 9.45605364 24.37517452 9.45681286 C20.7747901 9.45654154 17.17442937 9.45106675 13.57405281 9.44381142 C11.84161623 9.44061946 10.10917696 9.43865612 8.37673759 9.43791771 C5.96071119 9.43576041 3.54480105 9.4270299 1.12879944 9.4163208 C0.4061792 9.41677399 -0.31644104 9.41722717 -1.06095886 9.41769409 C-5.99866888 9.38553217 -5.99866888 9.38553217 -7.11314392 8.27105713 C-7.30064392 5.33355713 -7.30064392 5.33355713 -7.11314392 2.27105713 C-4.66788983 -0.17419696 -3.33743396 0.02905749 0 0 Z " fill="#050C17" transform="translate(343.11314392089844,426.72894287109375)"/>
<path d="M0 0 C2.31 0 4.62 0 7 0 C7 5.94 7 11.88 7 18 C13.93 18 20.86 18 28 18 C28 12.06 28 6.12 28 0 C30.31 0 32.62 0 35 0 C35 13.86 35 27.72 35 42 C32.69 42 30.38 42 28 42 C28 36.06 28 30.12 28 24 C21.07 24 14.14 24 7 24 C7 29.94 7 35.88 7 42 C4.69 42 2.38 42 0 42 C0 28.14 0 14.28 0 0 Z " fill="#9157F9" transform="translate(765,488)"/>
<path d="M0 0 C3.90341852 1.99543391 6.36051404 4.96434225 8 9 C8.80391964 15.13902267 8.45395089 21.70312832 5 27 C1.76847802 29.95596584 -1.26128968 30.89632136 -5.5625 31.5 C-9.69581516 30.89879052 -11.81166224 29.66930603 -15 27 C-17.54985461 23.33621573 -17.36715241 19.3669032 -17.375 15.0625 C-17.39949219 14.35931641 -17.42398437 13.65613281 -17.44921875 12.93164062 C-17.46967191 9.29438741 -17.13432087 7.21062656 -15.1640625 4.12109375 C-10.4191336 -0.52962176 -6.39862775 -0.98516975 0 0 Z " fill="#F8F6FD" transform="translate(1076,494)"/>
<path d="M0 0 C3.93015357 2.07630755 6.72985817 4.1772899 9 8 C9.75495012 13.64512252 10.44580411 20.65638161 7.3125 25.6875 C3.60704955 29.39295045 1.38361044 30.79915332 -3.875 31.5625 C-8.22431982 31.41394638 -10.53711456 29.47942734 -13.65234375 26.60546875 C-17.14756539 22.44159601 -16.44171621 16.60902648 -16.42578125 11.47265625 C-15.89194919 7.1187416 -14.61461306 5.11594538 -11.5078125 2.13671875 C-7.95530386 -0.54146781 -4.29068958 -0.5832781 0 0 Z " fill="#F9F7FD" transform="translate(1439,494)"/>
<path d="M0 0 C3.80665747 1.99666895 6.06337937 4.35932437 7.76953125 8.2734375 C7.76953125 9.2634375 7.76953125 10.2534375 7.76953125 11.2734375 C5.45953125 11.2734375 3.14953125 11.2734375 0.76953125 11.2734375 C0.48078125 10.6340625 0.19203125 9.9946875 -0.10546875 9.3359375 C-1.05870326 7.12137671 -1.05870326 7.12137671 -3.23046875 6.2734375 C-4.72803746 6.17844247 -6.22989807 6.14356552 -7.73046875 6.1484375 C-8.52453125 6.14585937 -9.31859375 6.14328125 -10.13671875 6.140625 C-12.28965409 6.14065754 -12.28965409 6.14065754 -14.23046875 7.2734375 C-14.23046875 9.5834375 -14.23046875 11.8934375 -14.23046875 14.2734375 C-12.9775 14.66015625 -11.72453125 15.046875 -10.43359375 15.4453125 C-8.78234675 15.97070927 -7.13131624 16.49678677 -5.48046875 17.0234375 C-4.65546875 17.27609375 -3.83046875 17.52875 -2.98046875 17.7890625 C5.09127946 20.39285225 5.09127946 20.39285225 7.76953125 24.2734375 C8.80836835 28.97111995 8.43429194 33.09164072 6.08203125 37.2734375 C0.57757218 42.03405075 -5.69733439 41.84911112 -12.67578125 41.66015625 C-15.96498172 41.30232015 -17.52301347 41.06071478 -20.04296875 39.0234375 C-22.81698736 35.53609982 -24.23046875 33.75409974 -24.23046875 29.2734375 C-20.98046875 28.8984375 -20.98046875 28.8984375 -17.23046875 29.2734375 C-16.61171875 30.2634375 -15.99296875 31.2534375 -15.35546875 32.2734375 C-13.6210682 35.43289232 -13.6210682 35.43289232 -11.12890625 35.7421875 C-7.02129508 35.79570686 -3.73812029 35.58600422 -0.23046875 33.2734375 C0.58537693 30.21435337 0.58537693 30.21435337 0.76953125 27.2734375 C-3.55420872 25.30810115 -7.79644935 23.80612964 -12.35546875 22.4609375 C-17.77072355 20.67621067 -20.42720908 19.27925835 -23.23046875 14.2734375 C-23.97581373 10.29826429 -23.43929349 8.66788423 -21.54296875 5.0859375 C-16.00954246 -1.64390528 -8.1605145 -2.65824115 0 0 Z " fill="#8A4EFA" transform="translate(1603.23046875,488.7265625)"/>
<path d="M0 0 C3.09004126 1.69789636 4.76676966 3.26148261 6.73046875 6.20703125 C6.85546875 8.89453125 6.85546875 8.89453125 6.73046875 11.20703125 C4.42046875 11.20703125 2.11046875 11.20703125 -0.26953125 11.20703125 C-0.39328125 10.56765625 -0.51703125 9.92828125 -0.64453125 9.26953125 C-0.85078125 8.58890625 -1.05703125 7.90828125 -1.26953125 7.20703125 C-3.7472822 5.96815577 -5.50606832 6.03961456 -8.26953125 6.01953125 C-9.15640625 6.00535156 -10.04328125 5.99117188 -10.95703125 5.9765625 C-13.46473109 5.97989999 -13.46473109 5.97989999 -15.26953125 8.20703125 C-15.43640573 10.79057343 -15.43640573 10.79057343 -15.26953125 13.20703125 C-11.25328665 15.04053422 -7.41832066 16.46240079 -3.14453125 17.58203125 C1.48739951 18.90745436 3.70536016 20.49883362 6.73046875 24.20703125 C7.06046875 24.53703125 7.39046875 24.86703125 7.73046875 25.20703125 C8.07997121 30.44956812 8.30100452 34.04140618 4.73046875 38.20703125 C-1.9670071 42.25116247 -8.65454842 42.22622917 -16.26953125 41.20703125 C-19.44156625 39.76248949 -21.40517956 38.15283962 -23.26953125 35.20703125 C-24.20703125 31.83203125 -24.20703125 31.83203125 -24.26953125 29.20703125 C-21.95953125 29.20703125 -19.64953125 29.20703125 -17.26953125 29.20703125 C-16.93953125 30.85703125 -16.60953125 32.50703125 -16.26953125 34.20703125 C-13.32126362 35.18978713 -11.34300621 35.3411785 -8.26953125 35.33203125 C-6.97015625 35.33589844 -6.97015625 35.33589844 -5.64453125 35.33984375 C-3.1194143 35.3029733 -3.1194143 35.3029733 -0.26953125 34.20703125 C-0.26953125 31.89703125 -0.26953125 29.58703125 -0.26953125 27.20703125 C-4.79670502 25.09863117 -9.20486486 23.18337459 -14.01953125 21.83203125 C-18.74658793 20.29221944 -20.7136548 18.49430787 -23.26953125 14.20703125 C-23.88185447 10.77802122 -24.06325268 8.57260709 -22.27734375 5.5 C-16.74787776 -1.55779665 -8.39815601 -2.93429547 0 0 Z " fill="#8E50F9" transform="translate(1000.26953125,488.79296875)"/>
<path d="M0 0 C10.23 0 20.46 0 31 0 C29.06296822 3.87406357 27.1924129 6.12925904 24.25 9.25 C20.17928533 13.64966131 16.482028 18.12949977 13 23 C12.20916016 24.02287109 12.20916016 24.02287109 11.40234375 25.06640625 C9.88438 26.99365549 9.88438 26.99365549 9 29.5 C7.25756246 33.85609384 4.34127275 36.77394355 1 40 C-0.63945963 36.72108075 -0.12030178 33.09386466 -0.09765625 29.4921875 C-0.0962413 28.65156769 -0.09482635 27.81094788 -0.09336853 26.94485474 C-0.08776237 24.25486725 -0.07520886 21.56496241 -0.0625 18.875 C-0.05748579 17.05338662 -0.05292275 15.23177193 -0.04882812 13.41015625 C-0.038641 8.94004656 -0.01906685 4.47011601 0 0 Z " fill="#5637C4" transform="translate(397,520)"/>
<path d="M0 0 C34.32 0 68.64 0 104 0 C104 1.98 104 3.96 104 6 C69.68 6 35.36 6 0 6 C0 4.02 0 2.04 0 0 Z " fill="#9053FA" transform="translate(593,508)"/>
<path d="M0 0 C2.31 0 4.62 0 7 0 C7.07451364 4.3049777 7.12877223 8.60960734 7.16479492 12.91503906 C7.17982196 14.37767075 7.20024955 15.84025782 7.22631836 17.30273438 C7.26297267 19.4128728 7.27978676 21.52241226 7.29296875 23.6328125 C7.3086792 24.90012207 7.32438965 26.16743164 7.34057617 27.47314453 C6.84593111 32.59546895 5.26546755 35.82944252 1.5 39.3125 C-4.31686956 43.23888696 -11.23899328 42.55953159 -18 42 C-21.5425928 40.81484168 -23.39190676 38.81386446 -25.6262207 35.82348633 C-27.38826448 32.20201196 -27.34099977 29.53031422 -27.29296875 25.51171875 C-27.28872391 24.80852005 -27.28447906 24.10532135 -27.28010559 23.3808136 C-27.2634006 21.14930869 -27.22576614 18.91872887 -27.1875 16.6875 C-27.17244248 15.1686329 -27.15875594 13.64975154 -27.14648438 12.13085938 C-27.11352473 8.42027566 -27.06180016 4.71022822 -27 1 C-25.02 1 -23.04 1 -21 1 C-20.9906543 1.85231201 -20.98130859 2.70462402 -20.97167969 3.58276367 C-20.92753079 6.76083517 -20.86585733 9.93795784 -20.79248047 13.11547852 C-20.76434625 14.48774907 -20.74309414 15.86017941 -20.72900391 17.23266602 C-20.70747269 19.21138494 -20.6587072 21.1897477 -20.609375 23.16796875 C-20.5779541 24.95110474 -20.5779541 24.95110474 -20.54589844 26.77026367 C-19.90122647 30.58438062 -18.67784054 32.25981853 -16 35 C-12.93570224 36.53214888 -10.3834358 36.22938548 -7 36 C-3.27196535 34.25271222 -3.27196535 34.25271222 -1 31 C-0.84479443 28.67726841 -0.74980833 26.35040687 -0.68359375 24.0234375 C-0.66281265 23.33819 -0.64203156 22.6529425 -0.62062073 21.94692993 C-0.55519815 19.75638931 -0.49627446 17.56572811 -0.4375 15.375 C-0.39430782 13.8906125 -0.3506933 12.40623722 -0.30664062 10.921875 C-0.19952447 7.28137916 -0.09823638 3.64074749 0 0 Z " fill="#8749F9" transform="translate(1234,488)"/>
<path d="M0 0 C32.01 0 64.02 0 97 0 C97 1.98 97 3.96 97 6 C64.99 6 32.98 6 0 6 C0 4.02 0 2.04 0 0 Z " fill="#9155FA" transform="translate(1679,508)"/>
<path d="M0 0 C11.22 0 22.44 0 34 0 C34 1.98 34 3.96 34 6 C29.38 6 24.76 6 20 6 C20 17.88 20 29.76 20 42 C17.69 42 15.38 42 13 42 C13 30.12 13 18.24 13 6 C8.71 6 4.42 6 0 6 C0 4.02 0 2.04 0 0 Z " fill="#9863F9" transform="translate(1286,488)"/>
<path d="M0 0 C2.31 0 4.62 0 7 0 C7 11.55 7 23.1 7 35 C13.6 35 20.2 35 27 35 C27 36.98 27 38.96 27 41 C18.09 41 9.18 41 0 41 C0 27.47 0 13.94 0 0 Z " fill="#9256F9" transform="translate(1136,489)"/>
<path d="M0 0 C0 0.99 0 1.98 0 3 C-0.73133888 3.61861263 -0.73133888 3.61861263 -1.47745228 4.24972248 C-3.85554059 6.98350511 -3.36841694 9.44051331 -3.36076355 13.00444031 C-3.36332682 13.72162525 -3.3658901 14.43881018 -3.36853105 15.177728 C-3.37348259 17.58705529 -3.356954 19.99575949 -3.34057617 22.4050293 C-3.33973019 24.12958766 -3.34020447 25.8541471 -3.34190369 27.57870483 C-3.34276621 32.26648841 -3.32509896 36.95404279 -3.30418181 41.64177299 C-3.28545775 46.53849874 -3.28366795 51.43522945 -3.28010559 56.33198547 C-3.27077255 65.60737821 -3.24614175 74.88266516 -3.21605712 84.15801126 C-3.18255226 94.71651075 -3.16603696 105.27501523 -3.15097082 115.83355463 C-3.11959329 137.55576218 -3.06680835 159.27787443 -3 181 C-3.99 181.33 -4.98 181.66 -6 182 C-6.14014427 159.15616448 -6.24595847 136.31239982 -6.31087303 113.46822166 C-6.3418148 102.86131803 -6.3840016 92.25468145 -6.45263672 81.64794922 C-6.51242873 72.40340804 -6.55114681 63.15906025 -6.56453097 53.91433108 C-6.57235507 49.01893144 -6.5907501 44.12408511 -6.63438034 39.22886276 C-6.67511825 34.62080255 -6.68766672 30.01352332 -6.67864609 25.40530014 C-6.68029621 23.71459203 -6.6922246 22.02385771 -6.71523285 20.33330536 C-6.88119223 7.509837 -6.88119223 7.509837 -4.61845779 3.63286209 C-2.95742798 1.94766235 -2.95742798 1.94766235 0 0 Z " fill="#9D60F5" transform="translate(462,329)"/>
<path d="M0 0 C0.83961777 0.00718552 1.67923553 0.01437103 2.54429626 0.02177429 C3.83496254 0.02246162 3.83496254 0.02246162 5.15170288 0.02316284 C6.97162758 0.02618599 8.79154968 0.03407416 10.61143494 0.0464325 C13.40750726 0.06469157 16.20324868 0.0669422 18.99937439 0.06669617 C20.76435123 0.07161114 22.52932581 0.07743937 24.29429626 0.08427429 C25.13593826 0.08538712 25.97758026 0.08649994 26.84472656 0.08764648 C32.73684296 0.13619599 32.73684296 0.13619599 33.85289001 1.25224304 C33.97789001 4.75224304 33.97789001 4.75224304 33.85289001 8.25224304 C32.85289001 9.25224304 32.85289001 9.25224304 29.06748962 9.36576843 C27.38006272 9.36560927 25.69263097 9.35991221 24.00523376 9.34989929 C22.67559349 9.34777687 22.67559349 9.34777687 21.3190918 9.34561157 C18.47615747 9.3399952 15.6333007 9.32743995 12.79039001 9.31474304 C10.86786511 9.30973015 8.94533897 9.30516688 7.02281189 9.30107117 C2.29947452 9.29002045 -2.42380456 9.27274487 -7.14710999 9.25224304 C-7.77210999 5.87724304 -7.77210999 5.87724304 -8.14710999 2.25224304 C-5.50689459 -0.38797236 -3.59218059 0.01421582 0 0 Z " fill="#0B111C" transform="translate(344.14710998535156,483.7477569580078)"/>
<path d="M0 0 C6.6 0 13.2 0 20 0 C20 0.33 20 0.66 20 1 C16.37 1 12.74 1 9 1 C9 1.66 9 2.32 9 3 C10.32 3.33 11.64 3.66 13 4 C11.02 4.33 9.04 4.66 7 5 C6.67 9.95 6.34 14.9 6 20 C10.62 20 15.24 20 20 20 C20 20.33 20 20.66 20 21 C16.04 21.495 16.04 21.495 12 22 C13.32 22.66 14.64 23.32 16 24 C13.03 24 10.06 24 7 24 C7 29.61 7 35.22 7 41 C4.69 41 2.38 41 0 41 C0 27.47 0 13.94 0 0 Z " fill="#8647FA" transform="translate(846,489)"/>
<path d="M0 0 C6.93 0 13.86 0 21 0 C18.77419355 6.67741935 18.77419355 6.67741935 14.625 9.9375 C10.52396777 13.36924377 8.4431639 16.29464731 6 21 C3.875 23.4375 3.875 23.4375 2 25 C1.34 25 0.68 25 0 25 C0 16.75 0 8.5 0 0 Z " fill="#382492" transform="translate(397,520)"/>
<path d="M0 0 C2.31 0 4.62 0 7 0 C7 13.86 7 27.72 7 42 C4.69 42 2.38 42 0 42 C0 28.14 0 14.28 0 0 Z " fill="#9155FB" transform="translate(1364,488)"/>
<path d="M0 0 C11.03030303 -0.48484848 11.03030303 -0.48484848 15.25 1.625 C17 4 17 4 17.5 7 C16.93562657 10.38624056 16.47378624 11.64209377 14 14 C9.28880087 14.54845159 4.75704748 14.17457055 0 14 C0 9.38 0 4.76 0 0 Z " fill="#FAF7FD" transform="translate(853,494)"/>
<path d="M0 0 C2.475 0.495 2.475 0.495 5 1 C4.77291581 6.56356259 3.40264688 9.33695609 -0.234375 13.51953125 C-5.37389136 17.82899297 -11.26675283 17.41143202 -17.66015625 17.32421875 C-22.04499104 16.89855643 -23.95359153 16.13600872 -27 13 C-27 12.01 -27 11.02 -27 10 C-24.75 8.8125 -24.75 8.8125 -22 8 C-21.401875 8.45375 -20.80375 8.9075 -20.1875 9.375 C-17.4820489 11.38476368 -15.34962299 11.49213002 -12.0234375 11.34375 C-8.55645595 10.75476472 -6.60464624 9.30866371 -4 7 C-2.43216832 4.72615716 -1.24127688 2.48255377 0 0 Z " fill="#8343FA" transform="translate(1449,513)"/>
<path d="M0 0 C1.37953745 0.01495729 2.75901915 0.03563562 4.13841248 0.06056213 C5.26516891 0.07497345 5.26516891 0.07497345 6.41468811 0.0896759 C8.90919536 0.12278046 11.40353366 0.16306874 13.89793396 0.2033844 C15.62285762 0.22767434 17.34778762 0.25151845 19.07272339 0.27493286 C23.62171112 0.33788591 28.17058732 0.40692054 32.71946716 0.47718811 C37.35768029 0.54777049 41.99597275 0.61264778 46.63426208 0.67799377 C55.74177113 0.80715064 64.84917261 0.94272729 73.95652771 1.08229065 C73.95652771 1.41229065 73.95652771 1.74229065 73.95652771 2.08229065 C49.20652771 2.08229065 24.45652771 2.08229065 -1.04347229 2.08229065 C-1.04347229 4.06229065 -1.04347229 6.04229065 -1.04347229 8.08229065 C24.03652771 8.08229065 49.11652771 8.08229065 74.95652771 8.08229065 C74.95652771 8.41229065 74.95652771 8.74229065 74.95652771 9.08229065 C64.95153576 9.12856585 54.94656913 9.16413527 44.94149208 9.18591499 C40.29607497 9.19636647 35.6507309 9.21055044 31.00535583 9.23316956 C26.52499546 9.25484945 22.04470549 9.26684899 17.56429672 9.27204514 C15.85221116 9.27574964 14.14012959 9.28298331 12.42807388 9.29375076 C10.03594285 9.30820133 7.64410529 9.31027132 5.25193787 9.30934143 C4.53912155 9.31653198 3.82630524 9.32372253 3.09188843 9.33113098 C-1.81536797 9.31039497 -1.81536797 9.31039497 -4.04347229 7.08229065 C-4.23097229 4.01979065 -4.23097229 4.01979065 -4.04347229 1.08229065 C-3.04347229 0.08229065 -3.04347229 0.08229065 0 0 Z " fill="#313740" transform="translate(340.04347229003906,456.91770935058594)"/>
<path d="M0 0 C1.45695606 0.0351679 2.91399408 0.06709729 4.37109375 0.09570312 C7.91578515 0.17227929 11.45736102 0.29275317 15 0.4375 C11.63624015 2.48012157 9.21349874 2.62276422 5.31640625 2.45703125 C4.22392578 2.42802734 3.13144531 2.39902344 2.00585938 2.36914062 C-0.28624753 2.28983347 -2.57797694 2.19872073 -4.86914062 2.09570312 C-6.50979492 2.05799805 -6.50979492 2.05799805 -8.18359375 2.01953125 C-9.17931396 1.98061768 -10.17503418 1.9417041 -11.20092773 1.90161133 C-15.01265769 2.63137559 -16.5149567 4.56000671 -19 7.4375 C-18.38247864 7.43305878 -17.76495728 7.42861755 -17.12872314 7.42404175 C-10.70497958 7.37981492 -4.28127923 7.34963623 2.14257812 7.32763672 C4.54038245 7.31757555 6.9381745 7.30392521 9.3359375 7.28662109 C12.78128082 7.2623782 16.22646199 7.25101802 19.671875 7.2421875 C20.74491882 7.23186493 21.81796265 7.22154236 22.92352295 7.21090698 C23.92425842 7.21075592 24.9249939 7.21060486 25.95605469 7.21044922 C26.83541687 7.206008 27.71477905 7.20156677 28.62078857 7.19699097 C31 7.4375 31 7.4375 35 9.4375 C15.53 9.4375 -3.94 9.4375 -24 9.4375 C-24 6.61962202 -22.93628591 5.85515642 -21 3.83984375 C-14.88465116 -1.36009022 -7.54295583 -0.31749905 0 0 Z " fill="#1968F6" transform="translate(293,578.5625)"/>
<path d="M0 0 C1.65 0 3.3 0 5 0 C5 9.57 5 19.14 5 29 C3.35 29 1.7 29 0 29 C0 19.43 0 9.86 0 0 Z " fill="#8640FA" transform="translate(1300,500)"/>
<path d="M0 0 C4.95 0 9.9 0 15 0 C11 6 11 6 8.5 7.4375 C4.24182415 10.09885991 2.46798707 14.16705065 1.25 18.9375 C1.1675 19.618125 1.085 20.29875 1 21 C0.67 21 0.34 21 0 21 C0 14.07 0 7.14 0 0 Z " fill="#140C4B" transform="translate(398,520)"/>
<path d="M0 0 C1.32 0 2.64 0 4 0 C4 9.24 4 18.48 4 28 C3.01 28 2.02 28 1 28 C0.34 28.99 -0.32 29.98 -1 31 C-0.67 20.77 -0.34 10.54 0 0 Z " fill="#8C4AFC" transform="translate(1208,490)"/>
<path d="M0 0 C0.33 0 0.66 0 1 0 C1 7.92 1 15.84 1 24 C-0.65 24 -2.3 24 -4 24 C-4 16.41 -4 8.82 -4 1 C-3.34 1.66 -2.68 2.32 -2 3 C-1.34 2.01 -0.68 1.02 0 0 Z " fill="#7D38FB" transform="translate(1505,505)"/>
<path d="M0 0 C1.32 0.66 2.64 1.32 4 2 C4 2.66 4 3.32 4 4 C4.66 4.33 5.32 4.66 6 5 C4.7934375 5.804375 4.7934375 5.804375 3.5625 6.625 C-0.40547638 10.44725973 0.23923319 15.95205686 0.04296875 21.11328125 C0.02169922 22.54220703 0.02169922 22.54220703 0 24 C-0.33 24 -0.66 24 -1 24 C-1 20.04 -1 16.08 -1 12 C-2.98 12.66 -4.96 13.32 -7 14 C-7 16.97 -7 19.94 -7 23 C-7.33 23 -7.66 23 -8 23 C-8.75015293 15.16506941 -7.30614691 9.61084525 -3 3 C-1.33203125 1.21484375 -1.33203125 1.21484375 0 0 Z " fill="#8D4FFA" transform="translate(1059,491)"/>
<path d="M0 0 C1.98 0 3.96 0 6 0 C4.4175669 3.76267426 2.03446237 6.29678233 -0.75 9.25 C-3.78271364 12.51801039 -6.65723657 15.74788945 -9.25 19.375 C-11.78391762 22.89352561 -14.55560944 25.37570243 -18 28 C-16.49339207 23.35462555 -16.49339207 23.35462555 -14 21.5625 C-11.74466294 20.10466585 -11.74466294 20.10466585 -11.125 17.22265625 C-9.90387361 13.72463795 -8.3916599 11.67992466 -6 8.875 C-3.57484915 6.01296536 -1.52202345 3.44040717 0 0 Z " fill="#603ED4" transform="translate(422,520)"/>
<path d="M0 0 C2.31 0 4.62 0 7 0 C7.33 1.65 7.66 3.3 8 5 C12.455 5.99 12.455 5.99 17 7 C14.875 9.5625 14.875 9.5625 12 12 C9.0625 12.25 9.0625 12.25 6 11 C3.61981778 8.91259646 1.59922084 6.73909101 0 4 C0 2.68 0 1.36 0 0 Z " fill="#8D52FA" transform="translate(976,518)"/>
<path d="M0 0 C0.66 0 1.32 0 2 0 C1.10912008 4.56575958 -0.49606345 6.6498777 -4 9.5 C-7.66041545 12.49905237 -8.63199861 14.43999535 -10 19 C-11.12508169 20.53143798 -12.29706498 22.02892609 -13.5 23.5 C-16.25080735 26.87989011 -18.00320741 29.68056544 -19 34 C-19.66 34 -20.32 34 -21 34 C-21.36170213 30.92553186 -21.50371546 28.06383629 -21 25 C-18.3125 22.4375 -18.3125 22.4375 -16.63671875 21.30078125 C-14.70876688 19.76854265 -13.82494867 18.26688791 -12.625 16.125 C-10.28002216 12.06902856 -7.32974751 9.55830022 -3.73828125 6.609375 C-1.61662369 4.64505385 -0.67965362 2.80357119 0 0 Z " fill="#452DAA" transform="translate(418,520)"/>
<path d="M0 0 C1.98 0 3.96 0 6 0 C5.67 3.96 5.34 7.92 5 12 C3.68 12 2.36 12 1 12 C1 20.91 1 29.82 1 39 C2.32 39.33 3.64 39.66 5 40 C3.35 40 1.7 40 0 40 C0 26.8 0 13.6 0 0 Z " fill="#833DF7" transform="translate(766,489)"/>
<path d="M0 0 C1.65 0 3.3 0 5 0 C5 5.61 5 11.22 5 17 C3.35 17.66 1.7 18.32 0 19 C0 12.73 0 6.46 0 0 Z " fill="#823DFA" transform="translate(1529,489)"/>
<path d="M0 0 C25.41 0 50.82 0 77 0 C77.495 0.99 77.495 0.99 78 2 C77.05452805 1.99777939 76.10905609 1.99555878 75.13493347 1.99327087 C66.23260268 1.97301505 57.33027656 1.95801606 48.42792797 1.94818783 C43.85094939 1.94296522 39.27398938 1.93587882 34.69702148 1.92456055 C30.28150054 1.91370962 25.86599749 1.90771846 21.45046425 1.90512276 C19.7643334 1.9032725 18.07820355 1.89965951 16.39208031 1.89426994 C14.03374476 1.88703028 11.67548351 1.8860103 9.31713867 1.88647461 C8.26733322 1.8810817 8.26733322 1.8810817 7.19631958 1.87557983 C4.17710127 1.88202858 1.89055308 2.03648231 -1 3 C-0.67 2.01 -0.34 1.02 0 0 Z " fill="#01020B" transform="translate(338,427)"/>
<path d="M0 0 C3.25 -0.375 3.25 -0.375 7 0 C11 4.71794872 11 4.71794872 11 8 C11.99 8.33 12.98 8.66 14 9 C8.70539419 11.1659751 8.70539419 11.1659751 5.875 10.5 C3.20555735 8.36444588 1.68730402 5.95278203 0 3 C0 2.01 0 1.02 0 0 Z " fill="#8E54F8" transform="translate(1579,518)"/>
<path d="M0 0 C0 4.62 0 9.24 0 14 C-1.98 14 -3.96 14 -6 14 C-6 9.71 -6 5.42 -6 1 C-3.82510133 -0.08744934 -2.41588781 0 0 0 Z " fill="#8540FA" transform="translate(800,516)"/>
<path d="M0 0 C1.98 0 3.96 0 6 0 C6 8.25 6 16.5 6 25 C5.67 25 5.34 25 5 25 C4.67 20.71 4.34 16.42 4 12 C3.67 12 3.34 12 3 12 C2.814375 10.576875 2.814375 10.576875 2.625 9.125 C2.28312823 5.91332809 2.28312823 5.91332809 0 4 C0 2.68 0 1.36 0 0 Z " fill="#8140FA" transform="translate(1136,489)"/>
<path d="M0 0 C10.89 0 21.78 0 33 0 C33 0.33 33 0.66 33 1 C19.635 1.495 19.635 1.495 6 2 C8.97 2.495 8.97 2.495 12 3 C8.09971775 5.60018816 4.52565431 5.15085514 0 5 C0 3.35 0 1.7 0 0 Z " fill="#7034F7" transform="translate(1286,489)"/>
<path d="M0 0 C0.33 1.32 0.66 2.64 1 4 C-0.01320313 4.85271484 -0.01320313 4.85271484 -1.046875 5.72265625 C-6.14427239 10.13499879 -10.13000464 13.86864628 -13 20 C-13.75 18.4375 -13.75 18.4375 -14 16 C-10.27784431 8.42275449 -10.27784431 8.42275449 -7 6 C-6.01 6 -5.02 6 -4 6 C-3.566875 5.071875 -3.566875 5.071875 -3.125 4.125 C-2 2 -2 2 0 0 Z " fill="#281772" transform="translate(413,520)"/>
<path d="M0 0 C0.99 0.33 1.98 0.66 3 1 C3 5.29 3 9.58 3 14 C1.68 14.33 0.36 14.66 -1 15 C-1.02685412 12.68756208 -1.04632841 10.3750373 -1.0625 8.0625 C-1.07410156 6.77472656 -1.08570313 5.48695313 -1.09765625 4.16015625 C-1 1 -1 1 0 0 Z " fill="#8842FC" transform="translate(1502,514)"/>
<path d="M0 0 C2.66735273 2.48952921 4.55746343 4.63408134 6 8 C5.38125 8.12375 4.7625 8.2475 4.125 8.375 C1.80879168 8.87197356 1.80879168 8.87197356 0 11 C-2.475 7.04 -2.475 7.04 -5 3 C-3.35 2.01 -1.7 1.02 0 0 Z " fill="#8F5AF8" transform="translate(1520,508)"/>
<path d="M0 0 C1.32 0 2.64 0 4 0 C2.38701436 3.85476229 -0.11513814 6.51633852 -2.9375 9.5625 C-3.81277344 10.51253906 -4.68804687 11.46257813 -5.58984375 12.44140625 C-7.36622676 14.32719372 -9.15032434 16.18695158 -11 18 C-10.87752752 13.95840809 -9.43731938 12.22680257 -6.625 9.5625 C-5.99722656 8.9746875 -5.36945313 8.386875 -4.72265625 7.78125 C-2.47900007 5.46127899 -1.22899356 2.96404328 0 0 Z " fill="#683FDD" transform="translate(424,520)"/>
<path d="M0 0 C0.6875 2 0.6875 2 1 4 C0 5 0 5 -2.50390625 5.09765625 C-4.01791016 5.08025391 -4.01791016 5.08025391 -5.5625 5.0625 C-6.57441406 5.05347656 -7.58632813 5.04445313 -8.62890625 5.03515625 C-9.41136719 5.02355469 -10.19382812 5.01195312 -11 5 C-4.36842105 -2.18421053 -4.36842105 -2.18421053 0 0 Z " fill="#7D3BF9" transform="translate(999,525)"/>
<path d="M0 0 C0.73828125 1.6953125 0.73828125 1.6953125 1 4 C-0.58203125 6.3671875 -0.58203125 6.3671875 -2.8125 8.875 C-5.99817987 12.47228099 -7.71873456 15.349481 -9 20 C-9.66 20 -10.32 20 -11 20 C-11 17.03 -11 14.06 -11 11 C-10.01 11 -9.02 11 -8 11 C-6.38674716 9.6068983 -6.38674716 9.6068983 -4.9375 7.75 C-4.43089844 7.14671875 -3.92429687 6.5434375 -3.40234375 5.921875 C-2.01450783 4.01988259 -0.98648679 2.13345469 0 0 Z " fill="#4535B8" transform="translate(408,534)"/>
<path d="M0 0 C0.66 0.33 1.32 0.66 2 1 C0.1875 3.5 0.1875 3.5 -2 6 C-2.99 6 -3.98 6 -5 6 C-3.63016497 2.83884224 -3.0109362 2.0072908 0 0 Z M-7 6 C-6.34 6.33 -5.68 6.66 -5 7 C-6.175625 8.2375 -6.175625 8.2375 -7.375 9.5 C-10.41164 13.09579467 -11.13190957 16.42279594 -12 21 C-12.33 21 -12.66 21 -13 21 C-13.44070796 12.33274336 -13.44070796 12.33274336 -10 8 C-9.01 7.34 -8.02 6.68 -7 6 Z " fill="#1D115C" transform="translate(411,520)"/>
<path d="M0 0 C1.70884005 1.62339805 3.37446717 3.29319053 5 5 C5 5.66 5 6.32 5 7 C3.35 7.66 1.7 8.32 0 9 C-0.99 8.01 -1.98 7.02 -3 6 C-2 4 -1 2 0 0 Z " fill="#8342F8" transform="translate(1515,502)"/>
<path d="M0 0 C2.33333333 0 4.66666667 0 7 0 C7 4.62 7 9.24 7 14 C6.67 14 6.34 14 6 14 C6 10.04 6 6.08 6 2 C4.02 2.66 2.04 3.32 0 4 C0 6.97 0 9.94 0 13 C-0.33 13 -0.66 13 -1 13 C-1.02708567 11.39592672 -1.04643483 9.7917215 -1.0625 8.1875 C-1.07410156 7.29417969 -1.08570313 6.40085937 -1.09765625 5.48046875 C-1 3 -1 3 0 0 Z " fill="#A77CFA" transform="translate(1052,501)"/>
<path d="M0 0 C-0.33 0.99 -0.66 1.98 -1 3 C0.32 3.33 1.64 3.66 3 4 C0.03 4.66 -2.94 5.32 -6 6 C-6.66 4.35 -7.32 2.7 -8 1 C-5.29120665 -0.35439668 -2.99066732 -0.06501451 0 0 Z " fill="#7C41FB" transform="translate(1069,489)"/>
<path d="M0 0 C1.32 0 2.64 0 4 0 C4 2.64 4 5.28 4 8 C2.02 8.99 2.02 8.99 0 10 C0 6.7 0 3.4 0 0 Z " fill="#8F50FB" transform="translate(1530,490)"/>
<path d="M0 0 C0 4.87140024 -2.99424286 7.93836747 -6.25 11.375 C-6.8275 11.91125 -7.405 12.4475 -8 13 C-8.33 11.02 -8.66 9.04 -9 7 C-8.01 7 -7.02 7 -6 7 C-4.32154581 5.46646436 -4.32154581 5.46646436 -2.8125 3.5 C-2.28269531 2.8503125 -1.75289063 2.200625 -1.20703125 1.53125 C-0.80871094 1.0259375 -0.41039062 0.520625 0 0 Z " fill="#4B43E3" transform="translate(406,547)"/>
<path d="M0 0 C0.66 0.66 1.32 1.32 2 2 C4.06874034 2.6425235 4.06874034 2.6425235 6 3 C5.67 3.99 5.34 4.98 5 6 C2.4375 7.1875 2.4375 7.1875 0 8 C-0.66 6.35 -1.32 4.7 -2 3 C-1.34 2.67 -0.68 2.34 0 2 C0 1.34 0 0.68 0 0 Z " fill="#8953FA" transform="translate(1000,521)"/>
<path d="M0 0 C1.5 1.375 1.5 1.375 3 3 C3 3.66 3 4.32 3 5 C-5.25 5 -13.5 5 -22 5 C-22 4.67 -22 4.34 -22 4 C-14.74 4 -7.48 4 0 4 C0 2.68 0 1.36 0 0 Z " fill="#1A1C26" transform="translate(887,409)"/>
<path d="M0 0 C0.66 0.33 1.32 0.66 2 1 C1.23832543 2.46313772 0.46529293 3.92036661 -0.3125 5.375 C-0.95638672 6.59316406 -0.95638672 6.59316406 -1.61328125 7.8359375 C-3 10 -3 10 -6 12 C-5.57630928 10.3713449 -5.1355377 8.74712622 -4.6875 7.125 C-4.44386719 6.22007812 -4.20023437 5.31515625 -3.94921875 4.3828125 C-3 2 -3 2 0 0 Z " fill="#493DCC" transform="translate(404,544)"/>
<path d="M0 0 C4.6875 0.78125 4.6875 0.78125 9.375 1.5625 C10.674375 1.7790625 10.674375 1.7790625 12 2 C8.09971775 4.60018816 4.52565431 4.15085514 0 4 C0 2.68 0 1.36 0 0 Z " fill="#7F3EF8" transform="translate(1286,490)"/>
<path d="M0 0 C0.99 0 1.98 0 3 0 C3 2.97 3 5.94 3 9 C2.01 8.67 1.02 8.34 0 8 C0 5.36 0 2.72 0 0 Z " fill="#8B4AFB" transform="translate(848,519)"/>
<path d="M0 0 C2.31 0 4.62 0 7 0 C6.67 1.98 6.34 3.96 6 6 C3.37812506 4.95125002 2.20628639 4.35068687 0.75 1.875 C0.5025 1.25625 0.255 0.6375 0 0 Z " fill="#161920" transform="translate(1661,404)"/>
<path d="M0 0 C0.66 0 1.32 0 2 0 C2.66 1.32 3.32 2.64 4 4 C3.34 4 2.68 4 2 4 C1.67 4.99 1.34 5.98 1 7 C-0.32 7 -1.64 7 -3 7 C-1.125 1.125 -1.125 1.125 0 0 Z " fill="#E6E7E9" transform="translate(816,335)"/>
<path d="M0 0 C0 3.80345877 -1.13786331 4.77701015 -3.5 7.6875 C-4.1496875 8.49574219 -4.799375 9.30398438 -5.46875 10.13671875 C-5.9740625 10.75160156 -6.479375 11.36648438 -7 12 C-7.66 11.34 -8.32 10.68 -9 10 C-6.03 6.7 -3.06 3.4 0 0 Z " fill="#171C27" transform="translate(291,285)"/>
<path d="M0 0 C-0.33 1.32 -0.66 2.64 -1 4 C-3.97 3.505 -3.97 3.505 -7 3 C-6.67 2.01 -6.34 1.02 -6 0 C-3.50907189 -1.24546405 -2.58919267 -0.7767578 0 0 Z " fill="#7F41FA" transform="translate(993,507)"/>
<path d="M0 0 C2.97 0 5.94 0 9 0 C9 0.33 9 0.66 9 1 C6.69 1.66 4.38 2.32 2 3 C1.67 6.3 1.34 9.6 1 13 C0.67 13 0.34 13 0 13 C0 8.71 0 4.42 0 0 Z " fill="#0B0839" transform="translate(398,520)"/>
<path d="M0 0 C0.66 0.33 1.32 0.66 2 1 C1.67 1.66 1.34 2.32 1 3 C2.32 3.33 3.64 3.66 5 4 C3.68 4.99 2.36 5.98 1 7 C0.34 6.67 -0.32 6.34 -1 6 C-1.042721 4.33388095 -1.04063832 2.66617115 -1 1 C-0.67 0.67 -0.34 0.34 0 0 Z " fill="#191E28" transform="translate(240,571)"/>
<path d="M0 0 C0.99 0.33 1.98 0.66 3 1 C3 2.32 3 3.64 3 5 C1.02 5 -0.96 5 -3 5 C-2.625 3.0625 -2.625 3.0625 -2 1 C-1.34 0.67 -0.68 0.34 0 0 Z " fill="#8F57FA" transform="translate(797,525)"/>
<path d="M0 0 C3.96 0 7.92 0 12 0 C11.01 0.33 10.02 0.66 9 1 C9 1.66 9 2.32 9 3 C7.35 3 5.7 3 4 3 C4 2.34 4 1.68 4 1 C2.68 0.67 1.36 0.34 0 0 Z " fill="#9159F7" transform="translate(1589,488)"/>
<path d="M0 0 C0.33 0.66 0.66 1.32 1 2 C-3 8.57142857 -3 8.57142857 -7 10 C-5.33248852 6.05860922 -2.77289351 3.2107188 0 0 Z " fill="#191E28" transform="translate(257,326)"/>
<path d="M0 0 C-0.33 0.66 -0.66 1.32 -1 2 C-4.3 2 -7.6 2 -11 2 C-6.98764085 -0.6749061 -4.6342454 -1.48957888 0 0 Z " fill="#1B1F27" transform="translate(187,214)"/>
<path d="M0 0 C1.32 0 2.64 0 4 0 C2.63016497 3.16115776 2.0109362 3.9927092 -1 6 C-0.67 4.02 -0.34 2.04 0 0 Z " fill="#7144E0" transform="translate(424,520)"/>
<path d="M0 0 C-1.33332095 3.99996286 -3.4957827 4.83782337 -7 7 C-6.61402985 4.20171644 -6.19863427 3.1794116 -4.0625 1.25 C-2 0 -2 0 0 0 Z " fill="#8F57F6" transform="translate(1589,489)"/>
<path d="M0 0 C0 1.98 0 3.96 0 6 C-3.875 4.25 -3.875 4.25 -5 2 C-1.125 0 -1.125 0 0 0 Z " fill="#F2F2F3" transform="translate(1398,373)"/>
</svg>
