<svg version="1.1" id="Layer_1" xmlns="http://www.w3.org/2000/svg" xmlns:xlink="http://www.w3.org/1999/xlink" x="0px" y="0px"
 width="100%" viewBox="45 190 950 135" enable-background="new 0 0 1024 512" xml:space="preserve">
<path fill="#FFFFFF" opacity="1.000000" stroke="none"
 d="
M672.406128,234.813568
 C686.841553,234.797775 700.821472,234.771698 714.801208,234.800674
 C725.091370,234.822006 729.847839,239.416855 730.039917,249.607697
 C730.152771,255.596802 730.212830,261.595062 730.015747,267.579956
 C729.727051,276.347351 724.905762,281.059540 716.126404,281.122314
 C701.648071,281.225830 687.167969,281.227112 672.689575,281.127838
 C664.244446,281.069946 659.719666,276.470062 659.612610,268.129517
 C659.533508,261.972687 659.581726,255.814255 659.509583,249.657272
 C659.398926,240.210968 662.451355,236.542450 672.406128,234.813568
M708.446411,244.032059
 C697.618958,244.023132 686.791504,243.986725 675.964111,244.015411
 C669.307800,244.033035 668.346130,244.991394 668.309509,251.427353
 C668.281128,256.424469 668.374512,261.423065 668.286560,266.418732
 C668.220093,270.189453 670.015564,271.986511 673.700378,271.987305
 C687.692505,271.990295 701.684570,271.984863 715.676697,271.959686
 C719.185120,271.953369 720.818848,270.081177 720.802795,266.626556
 C720.784973,262.795471 720.805359,258.964233 720.807434,255.133057
 C720.813599,243.931732 720.813293,243.931732 708.446411,244.032059
z"/>
<path fill="#FFFFFF" opacity="1.000000" stroke="none"
 d="
M959.651489,269.395569
 C961.957458,271.819031 964.153198,273.884430 966.059326,276.189270
 C968.209595,278.789246 967.235962,280.515106 964.087524,281.013397
 C960.752502,281.541290 957.849609,280.635895 955.509827,278.048584
 C951.710632,273.847290 947.778564,269.764648 944.034180,265.515961
 C942.011047,263.220276 939.729370,262.171021 936.614441,262.252380
 C929.952576,262.426300 923.276062,262.492950 916.619324,262.240265
 C912.372681,262.079071 910.944885,263.823517 911.221741,267.849060
 C911.426941,270.832428 911.309143,273.849152 911.161011,276.842407
 C911.024841,279.593842 909.494751,281.103973 906.654480,281.094513
 C903.821472,281.085052 902.241577,279.613007 902.204224,276.823059
 C902.130859,271.341309 902.056458,265.851074 902.279480,260.376465
 C902.468750,255.732712 905.165466,253.658920 909.839111,253.686615
 C923.504700,253.767593 937.171082,253.725006 950.836975,253.673386
 C952.474304,253.667206 954.216187,253.595856 955.722290,253.043777
 C958.011169,252.204803 958.903442,250.253571 958.622498,247.810547
 C958.345764,245.404602 956.775024,244.357758 954.581970,244.137054
 C952.929810,243.970779 951.255615,243.986450 949.591125,243.984222
 C935.925232,243.965973 922.259277,243.978668 908.593506,243.937759
 C906.465271,243.931396 904.132263,244.207687 902.766113,241.962646
 C900.890808,238.880783 902.974548,234.954346 906.869202,234.919296
 C923.199524,234.772324 939.538757,234.575577 955.860596,234.974167
 C963.694763,235.165451 967.562927,240.253082 967.855042,248.771164
 C968.119568,256.481049 964.547913,260.898834 956.870178,262.366211
 C956.232666,262.488037 955.601562,262.643250 954.559143,262.872894
 C955.553162,265.647736 957.895325,267.102905 959.651489,269.395569
z"/>
<path fill="#FFFFFF" opacity="1.000000" stroke="none"
 d="
M67.162781,209.861053
 C100.628822,209.839645 133.616165,209.809982 166.603455,209.832245
 C168.666870,209.833633 171.384583,209.003876 172.419800,211.477859
 C173.346237,213.691940 170.747345,214.811005 169.733444,216.431961
 C166.233994,222.026703 161.509979,223.746460 154.691727,223.642166
 C128.058075,223.234787 101.411911,223.638351 74.770447,223.752502
 C69.165543,223.776520 61.789383,218.748795 59.547043,213.455826
 C58.736629,211.542847 59.459789,210.471893 61.211948,210.166016
 C62.999065,209.854034 64.857094,209.948257 67.162781,209.861053
z"/>
<path fill="#FFFFFF" opacity="1.000000" stroke="none"
 d="
M542.124512,249.027679
 C542.121887,257.176605 542.133545,264.830994 542.108459,272.485260
 C542.098572,275.495392 542.324585,278.861084 539.027527,280.324127
 C535.314636,281.971619 531.519592,281.540497 528.210754,278.955505
 C518.509399,271.376312 508.838379,263.758453 499.149872,256.162842
 C494.727875,252.696091 490.292755,249.246094 485.909760,245.824585
 C483.674255,247.530930 484.460602,249.507172 484.441437,251.187149
 C484.348480,259.339630 484.364777,267.493774 484.403687,275.647064
 C484.417847,278.612976 483.891937,281.027710 480.202972,281.058746
 C476.345154,281.091187 475.581604,278.700378 475.601227,275.449554
 C475.664581,264.966736 475.608521,254.483246 475.645721,244.000198
 C475.656708,240.897354 474.929138,237.299606 478.579193,235.667938
 C482.520050,233.906235 486.386047,234.546921 489.820801,237.264130
 C497.649353,243.457230 505.471375,249.658554 513.301086,255.850189
 C519.381836,260.658752 525.470215,265.457703 532.139771,270.722321
 C533.379272,264.739990 532.648193,259.630829 532.791321,254.577927
 C532.932617,249.589828 532.826477,244.594955 532.848999,239.603149
 C532.862366,236.627548 534.192993,234.874161 537.353882,234.893997
 C540.436218,234.913330 541.928894,236.597626 542.029419,239.549927
 C542.131226,242.541931 542.098022,245.538528 542.124512,249.027679
z"/>
<path fill="#FFFFFF" opacity="1.000000" stroke="none"
 d="
M124.068863,291.902588
 C122.709213,293.429901 121.639557,294.709534 120.484711,295.907043
 C119.364113,297.069092 117.760971,297.952454 116.505676,296.737854
 C112.766228,293.119507 107.993179,290.170380 108.017677,283.929565
 C108.079132,268.274811 107.941956,252.619186 108.021332,236.964615
 C108.054115,230.500259 112.060165,226.634491 118.222473,226.678741
 C124.226532,226.721863 127.359711,230.263947 127.364288,237.115036
 C127.374641,252.603546 127.294640,268.092468 127.394852,283.580292
 C127.415527,286.775696 126.825279,289.502197 124.068863,291.902588
z"/>
<path fill="#FFFFFF" opacity="1.000000" stroke="none"
 d="
M861.500183,262.330872
 C848.407532,262.312103 835.759399,262.452820 823.117493,262.232635
 C818.803101,262.157471 816.957153,263.554260 817.303772,267.940796
 C817.525757,270.750610 817.316284,273.594269 817.306458,276.422760
 C817.295959,279.442657 815.913391,281.145813 812.767822,281.051727
 C809.904358,280.966095 808.649353,279.435425 808.660461,276.573059
 C808.708008,264.260406 808.692749,251.947525 808.687744,239.634720
 C808.686523,236.665894 809.878479,234.819290 813.094543,234.904327
 C816.291077,234.988861 817.425720,236.899307 817.317444,239.844315
 C817.305237,240.176514 817.318298,240.509842 817.325806,240.842514
 C817.614685,253.706223 817.614807,253.710999 830.726257,253.718048
 C839.711365,253.722885 848.696472,253.721405 857.681580,253.705444
 C864.705505,253.692978 864.705933,253.681168 864.731323,246.429626
 C864.738342,244.432968 864.755310,242.436218 864.744080,240.439651
 C864.727722,237.530167 865.253967,234.985535 868.901001,234.891800
 C872.790649,234.791794 874.143982,237.124878 874.143982,240.637390
 C874.143982,244.464294 874.151245,248.291214 874.147827,252.118118
 C874.140991,259.772034 874.124939,267.425934 874.120911,275.079865
 C874.119324,278.164703 873.532715,280.906189 869.708496,281.030640
 C865.753418,281.159302 864.597229,278.738495 864.719788,275.194214
 C864.823242,272.202942 864.725281,269.204926 864.733154,266.209961
 C864.738342,264.238800 864.482422,262.477203 861.500183,262.330872
z"/>
<path fill="#FFFFFF" opacity="1.000000" stroke="none"
 d="
M206.541718,246.567352
 C208.586502,243.905884 210.363403,241.487793 212.244751,239.153915
 C216.953568,233.312469 224.817032,232.882202 229.471634,238.716461
 C239.236099,250.955643 248.698364,263.437408 258.188202,275.893127
 C260.551147,278.994568 259.629608,280.686981 255.840057,281.148895
 C252.069138,281.608582 249.612137,279.914429 247.428711,276.992004
 C240.150482,267.250275 232.715134,257.625824 225.323822,247.968796
 C221.497192,242.969162 220.605286,242.944717 216.875397,247.836227
 C209.401047,257.638397 201.930115,267.443573 194.533142,277.304047
 C192.736404,279.699127 190.850449,281.557526 187.549271,281.203339
 C185.886185,281.024872 184.009171,281.241821 183.147537,279.496735
 C182.360336,277.902466 183.649490,276.651154 184.535431,275.482330
 C191.779984,265.924683 199.055359,256.390442 206.541718,246.567352
z"/>
<path fill="#FFFFFF" opacity="1.000000" stroke="none"
 d="
M607.570435,245.729874
 C607.351440,255.628891 607.264404,265.120483 607.253235,274.612152
 C607.249146,278.101288 606.716125,281.167450 602.291565,281.052094
 C597.972229,280.939484 597.983154,277.630920 597.966553,274.564758
 C597.923340,266.568787 597.964661,258.572388 597.947021,250.576233
 C597.932739,244.125031 597.777527,243.991455 591.123474,243.988403
 C585.459595,243.985809 579.795776,243.974716 574.131897,243.982254
 C570.841248,243.986633 567.997498,243.388596 568.030396,239.216827
 C568.061768,235.237442 570.867126,234.832596 573.911377,234.830643
 C593.069092,234.818405 612.226807,234.801743 631.384521,234.810013
 C634.367920,234.811295 637.155945,235075256 637.284729,239.150513
 C637.422241,243.501190 634.545654,243.945663 631.325684,243.963333
 C625.328979,243.996246 619.331543,243.918945 613.335388,243.982559
 C611.399658,244.003082 609.275879,243.536942 607.570435,245.729874
z"/>
<path fill="#FFFFFF" opacity="1.000000" stroke="none"
 d="
M286.350647,271.762085
 C286.238495,261.204102 286.129028,251.043549 286.140259,240.883102
 C286.143524,237.928741 286.601959,234.968887 290.567017,234.950958
 C294.687256,234.932312 295.303741,237.690399 295.275970,241.062195
 C295.205994,249.559235 295.429871,258.062225 295.185760,266.552765
 C295.065857,270.722748 296.594574,272.106354 300.681763,272.062225
 C315.009277,271.907623 329.339844,271.972565 343.668701,272.051849
 C346.431580,272.067139 349.686676,271.783539 350.173584,275.807983
 C350.560364,279.004364 349.220673,281.072235 345.801453,281.080078
 C328.140564,281.120605 310.477783,281.234955 292.819580,281.013641
 C287.356873,280.945190 286.254639,276.779297 286.350647,271.762085
z"/>
<path fill="#FFFFFF" opacity="1.000000" stroke="none"
 d="
M425.997284,244.082840
 C412.518188,244.074356 399.538605,244.070816 386.558990,244.057434
 C385.061981,244.055893 383.560333,244.064392 382.069092,243.955215
 C379.078583,243.736282 377.591705,242.191620 377.714020,239.074921
 C377.830292,236.111343 379.506622,234.863922 382.190308,234.857758
 C401.492828,234.813354 420.795502,234.811920 440.098114,234.830994
 C443.083405,234.833954 444.822754,236.346634 444.743408,239.438766
 C444.666016,242.454376 442.980347,243.975464 439.975037,244.001953
 C435.482391,244.041580 430.989532,244.058350 425.997284,244.082840
z"/>
<path fill="#FFFFFF" opacity="1.000000" stroke="none"
 d="
M394.011078,271.989624
 C407.498810,271.990570 420.488708,271.988708 433.478607,271.995178
 C435.310181,271.996094 437.147278,271.955719 438.972107,272.078674
 C441.901611,272.276001 444.819244,272.560242 444.668243,276.670197
 C444.526703,280.522766 442.067535,281.167755 438.876221,281.158234
 C425.719940,281.119019 412.563416,281.158875 399.406982,281.164032
 C394.244324,281.166077 389.081604,281.134186 383.919037,281.154205
 C380.684265,281.166748 377.763947,280.842010 377.745850,276.552063
 C377.727051,272.101227 380.993408,272.153625 384.021515,272.043365
 C387.181885,271.928375 390.349060,271.999664 394.011078,271.989624
z"/>
<path fill="#FFFFFF" opacity="1.000000" stroke="none"
 d="
M772.271118,234.000076
 C772.270142,254.948929 772.271545,275.397797 772.261658,295.846649
 C772.260986,297.341034 772.286621,298.848450 772.107361,300.326416
 C771.884338,302.164612 770.909058,303.473022 768.868896,303.389648
 C767.043335,303.315063 766.314270,301.976715 766.093872,300.391205
 C765.911682,299.080688 765.889832,297.740448 765.888916,296.413330
 C765.870239,270.145844 765.864929,243.878372 765.856934,217.610886
 C765.856934,217.444641 765.842102,217.276794 765.859497,217.112381
 C766.140991,214.455322 765.088806,210.522079 769.133911,210.480911
 C773.417847,210.437302 772.150146,214.470215 772.225342,217.042618
 C772.385498,222.524200 772.272034,228.013794 772.271118,234.000076
z"/>
<path fill="#FFFFFF" opacity="1.000000" stroke="none"
 d="
M437.810638,262.330200
 C419.556030,262.328888 401.774658,262.320312 383.993286,262.334625
 C380.869293,262.337158 377.745361,262.448730 377.767212,257.981384
 C377.789124,253.501831 380.972229,253.671585 384.057739,253.670624
 C402.171448,253.664963 420.285156,253.650040 438.398865,253.653732
 C441.216614,253.654312 444.318634,253.188858 444.507568,257.505524
 C444.710266,262.136963 441.779053,262.557526 437.810638,262.330200
z"/>
</svg>
